<?xml version="1.0" encoding="utf-8"?>
<!-- Generator: Adobe Illustrator 16.0.0, SVG Export Plug-In . SVG Version: 6.00 Build 0)  -->
<!DOCTYPE svg PUBLIC "-//W3C//DTD SVG 1.1//EN" "http://www.w3.org/Graphics/SVG/1.1/DTD/svg11.dtd">
<svg version="1.1" id="Layer_1" xmlns="http://www.w3.org/2000/svg" xmlns:xlink="http://www.w3.org/1999/xlink" x="0px" y="0px"
	 width="296.666px" height="90.499px" viewBox="0 0 296.666 90.499" enable-background="new 0 0 296.666 90.499"
	 xml:space="preserve">
<g>
	<g>
		<path fill="#D11317" d="M78.715,13.109l-2.289,2.711c-1.022-1.244-2.533-2.022-3.911-2.022c-2.467,0-4.333,1.956-4.333,4.512
			c0,2.6,1.867,4.577,4.333,4.577c1.311,0,2.822-0.711,3.911-1.821l2.311,2.443c-1.667,1.712-4.133,2.845-6.422,2.845
			c-4.689,0-8.178-3.445-8.178-8c0-4.488,3.578-7.866,8.311-7.866C74.76,10.487,77.16,11.51,78.715,13.109z"/>
		<path fill="#D11317" d="M87.312,10.621c3.978,0,6.267,1.955,6.267,5.421c0,3.646-2.289,5.756-6.267,5.756H84.49v4.378h-3.955
			V10.621H87.312z M84.49,18.687h2.623c1.733,0,2.733-0.866,2.733-2.511c0-1.622-1-2.444-2.733-2.444H84.49V18.687z"/>
		<path fill="#D11317" d="M107.753,12.176l-1.488,3.089c-1.645-0.955-3.711-1.622-4.979-1.622c-1.022,0-1.711,0.379-1.711,1.133
			c0,2.688,8.223,1.156,8.223,6.778c0,3.11-2.756,4.755-6.223,4.755c-2.6,0-5.266-0.977-7.111-2.488l1.533-3.044
			c1.6,1.399,4,2.332,5.623,2.332c1.244,0,2.022-0.467,2.022-1.355c0-2.755-8.222-1.11-8.222-6.621c0-2.866,2.466-4.689,6.2-4.689
			C103.865,10.442,106.153,11.132,107.753,12.176z"/>
	</g>
	<g>
		<path fill="#464545" d="M59.656,17.544l-7.633,35.908h-5.808l-4.081-25.106l-5.329,25.106h-6.913l6.913-32.596
			c0,0-4.493,30.189-19.993,32.689c-2.418,0.39-0.589-3.416,0.036-3.642c16.214-5.858,19.714-32.108,19.714-32.108
			c0.622-1.3,5.764-0.348,7.156,0.324l3.792,25.443l5.232-26.02H59.656z"/>
		<path fill="#D11317" d="M17.222,49.179c1.824,0,4.128-1.199,5.665-2.543c-1.008,5.472-4.464,7.104-8.305,7.104
			c-4.464,0-7.44-2.208-7.44-7.633c0-5.52,3.12-17.089,12.961-17.089c4.272,0,5.28,2.208,5.28,4.608
			c0,5.568-5.28,9.793-11.041,10.129c-0.048,0.48-0.096,1.008-0.096,1.439C14.246,48.22,15.542,49.179,17.222,49.179z
			 M20.486,31.562c-2.4,0-4.8,5.328-5.808,9.889c3.744-0.191,7.008-3.888,7.008-7.92C21.687,32.33,21.398,31.562,20.486,31.562z"/>
		<g>
			<path fill="#464545" d="M66.882,49.208c3.792,0,6.096-2.113,8.497-4.85h1.632c-2.736,4.417-6.817,8.881-13.201,8.881
				c-4.513,0-7.489-2.208-7.489-7.633c0-5.52,3.12-17.089,12.961-17.089c4.272,0,5.281,2.208,5.281,4.608
				c0,5.521-5.281,9.793-11.041,10.129c-0.048,0.672-0.096,1.344-0.096,1.92C63.426,48.439,64.578,49.208,66.882,49.208z
				 M69.667,31.062c-2.448,0-4.8,5.137-5.761,9.889c3.696-0.24,6.961-3.936,6.961-7.92C70.867,31.83,70.579,31.062,69.667,31.062z"
				/>
			<path fill="#464545" d="M85.554,28.95l-3.456,16.32c-0.096,0.385-0.144,0.816-0.144,1.201c0,1.104,0.336,2.111,1.44,2.111
				c1.872,0,3.12-1.824,3.84-4.225l3.264-15.408h6.913l-3.456,16.32c-0.144,0.672-0.24,1.297-0.24,1.729
				c0,0.96,0.48,1.584,1.632,1.584c4.705,0,8.305-10.752,8.305-16.033c-0.144,0.336-1.152,0.48-1.536,0.48
				c-1.152,0-1.728-1.393-1.728-2.449c0-1.487,0.96-2.592,2.976-2.592c2.304,0,3.024,2.064,3.024,4.177
				c0,7.681-3.888,21.073-13.681,21.073c-3.121,0-5.185-1.344-5.761-4.031c-2.352,3.455-4.896,4.031-6.816,4.031
				c-2.88,0-5.136-1.728-5.136-5.76c0-0.912,0.144-1.969,0.384-3.121l3.264-15.408H85.554z"/>
			<path fill="#464545" d="M127.458,44.358c-2.496,2.881-5.136,4.705-7.344,6.001c-2.016,2.112-5.088,2.88-7.537,2.88
				c-4.896,0-7.008-3.216-7.008-6.145c0-2.208,1.248-3.84,2.544-4.464c2.688-4.753,4.416-9.505,5.904-14.21l7.104-0.959
				c0.576,12.433,1.057,14.305,1.057,17.473c0,0.672-0.049,1.248-0.192,1.824c1.296-0.768,2.544-1.632,3.456-2.4H127.458z
				 M109.409,46.711c-0.48,0-1.057-0.144-1.296-0.624c0,2.256,0.815,3.36,2.929,3.36c2.111,0,4.176-1.104,4.176-4.464
				c0-2.496-0.432-3.984-0.912-11.377c-0.96,3.119-2.305,6-3.889,9.072c0.625,0.288,1.104,0.864,1.104,1.68
				C111.521,45.511,110.657,46.711,109.409,46.711z"/>
			<path fill="#464545" d="M137.681,19.349l-5.521,25.922c-0.145,0.625-0.191,1.104-0.191,1.537c0,1.344,0.623,1.775,1.967,1.775
				c1.873,0,3.602-1.824,4.32-4.225h2.018c-2.736,7.825-7.489,8.881-10.082,8.881c-2.88,0-5.137-1.728-5.137-5.76
				c0-0.912,0.145-1.969,0.385-3.121l5.137-24.05L137.681,19.349z"/>
			<path fill="#464545" d="M148.193,49.208c3.792,0,6.097-2.113,8.497-4.85h1.632c-2.736,4.417-6.817,8.881-13.201,8.881
				c-4.513,0-7.489-2.208-7.489-7.633c0-5.52,3.121-17.089,12.961-17.089c4.273,0,5.281,2.208,5.281,4.608
				c0,5.521-5.281,9.793-11.041,10.129c-0.049,0.672-0.096,1.344-0.096,1.92C144.737,48.439,145.889,49.208,148.193,49.208z
				 M150.977,31.062c-2.448,0-4.801,5.137-5.761,9.889c3.696-0.24,6.961-3.936,6.961-7.92
				C152.177,31.83,151.889,31.062,150.977,31.062z"/>
			<path fill="#464545" d="M168.497,21.364l-1.633,7.586h2.881l-0.385,1.92h-2.879l-3.072,14.4
				c-0.145,0.625-0.193,1.104-0.193,1.537c0,1.344,0.625,1.775,1.969,1.775c1.873,0,3.601-1.824,4.32-4.225h2.017
				c-2.736,7.825-7.489,8.881-10.081,8.881c-2.881,0-5.137-1.728-5.137-5.76c0-0.912,0.145-1.969,0.385-3.121l2.88-13.488h-1.585
				l0.385-1.92h1.584l1.44-6.625L168.497,21.364z"/>
			<path fill="#464545" d="M181.312,21.364l-1.632,7.586h2.88l-0.384,1.92h-2.881l-3.072,14.4c-0.144,0.625-0.191,1.104-0.191,1.537
				c0,1.344,0.624,1.775,1.968,1.775c1.872,0,3.601-1.824,4.32-4.225h2.017c-2.736,7.825-7.488,8.881-10.081,8.881
				c-2.88,0-5.136-1.728-5.136-5.76c0-0.912,0.143-1.969,0.383-3.121l2.881-13.488h-1.584l0.384-1.92h1.584l1.44-6.625
				L181.312,21.364z"/>
			<path fill="#464545" d="M192.256,49.208c3.792,0,6.096-2.113,8.496-4.85h1.633c-2.736,4.417-6.816,8.881-13.201,8.881
				c-4.513,0-7.488-2.208-7.488-7.633c0-5.52,3.119-17.089,12.961-17.089c4.271,0,5.28,2.208,5.28,4.608
				c0,5.521-5.28,9.793-11.041,10.129c-0.048,0.672-0.097,1.344-0.097,1.92C188.799,48.439,189.952,49.208,192.256,49.208z
				 M195.041,31.062c-2.448,0-4.8,5.137-5.761,9.889c3.696-0.24,6.961-3.936,6.961-7.92
				C196.241,31.83,195.953,31.062,195.041,31.062z"/>
			<path fill="#464545" d="M210.927,28.95l-0.624,2.976c1.68-1.44,3.504-2.976,5.809-2.976c2.16,0,3.312,1.775,3.312,3.6
				c0,1.68-1.104,3.504-3.457,3.504c-2.688,0-1.344-3.168-2.783-3.168c-1.44,0-2.305,0.721-3.505,1.824l-3.841,18.242h-6.912
				l5.088-24.002H210.927z"/>
		</g>
	</g>
</g>
</svg>
